<?xml version="1.0" encoding="UTF-8" standalone="no"?>
<!-- Created with Inkscape (http://www.inkscape.org/) -->

<svg
   xmlns:dc="http://purl.org/dc/elements/1.1/"
   xmlns:cc="http://creativecommons.org/ns#"
   xmlns:rdf="http://www.w3.org/1999/02/22-rdf-syntax-ns#"
   xmlns:svg="http://www.w3.org/2000/svg"
   xmlns="http://www.w3.org/2000/svg"
   xmlns:sodipodi="http://sodipodi.sourceforge.net/DTD/sodipodi-0.dtd"
   xmlns:inkscape="http://www.inkscape.org/namespaces/inkscape"
   id="svg4155"
   version="1.1"
   inkscape:version="0.91 r13725"
   width="1127.7"
   height="1127.7"
   viewBox="0 0 1127.7 1127.7"
   sodipodi:docname="trlogo.svg">
  <metadata
     id="metadata4161">
    <rdf:RDF>
      <cc:Work
         rdf:about="">
        <dc:format>image/svg+xml</dc:format>
        <dc:type
           rdf:resource="http://purl.org/dc/dcmitype/StillImage" />
        <dc:title></dc:title>
      </cc:Work>
    </rdf:RDF>
  </metadata>
  <defs
     id="defs4159" />
  <sodipodi:namedview
     pagecolor="#ffffff"
     bordercolor="#666666"
     borderopacity="1"
     objecttolerance="10"
     gridtolerance="10"
     guidetolerance="10"
     inkscape:pageopacity="0"
     inkscape:pageshadow="2"
     inkscape:window-width="1444"
     inkscape:window-height="865"
     id="namedview4157"
     showgrid="false"
     inkscape:zoom="0.57905474"
     inkscape:cx="745.63829"
     inkscape:cy="434.07436"
     inkscape:window-x="0"
     inkscape:window-y="0"
     inkscape:window-maximized="0"
     inkscape:current-layer="svg4155" />
  <path
     style="fill:#00d4aa;fill-opacity:1"
     d="m 724.01829,1144.4839 c -14.04383,-1.3642 -21.96918,-2.8126 -32.69999,-5.976 -20.35018,-5.9991 -39.4795,-16.4661 -55.5547,-30.3978 -2.2799,-1.9759 -23.38266,-22.8409 -46.89498,-46.3666 l -42.74964,-42.774 19.27359,-19.27366 19.27359,-19.27359 43.42606,43.38755 c 29.7737,29.7473 44.41637,44.1703 46.57607,45.8773 23.69952,18.7326 54.17614,25.5213 82.71426,18.4249 13.91358,-3.4598 26.3853,-9.6131 37.73574,-18.618 2.31654,-1.8378 15.79518,-15.0979 45.22717,-44.4938 l 41.92712,-41.87578 19.27251,19.27248 19.27251,19.2726 -41.09967,41.1143 c -22.60478,22.6129 -42.81344,42.609 -44.90808,44.4359 -21.55041,18.7952 -46.7493,30.7641 -74.72259,35.4915 -8.67371,1.4658 -12.07173,1.7244 -23.76897,1.809 -6.105,0.044 -11.64,0.028 -12.3,-0.036 z m -210.75,-229.9373 c -24.84141,-1.58868 -47.72369,-10.49064 -67.5,-26.25972 -5.03769,-4.01691 -14.24755,-13.18899 -18.04136,-17.96736 -14.75658,-18.58617 -23.00571,-38.26776 -25.96506,-61.95 -0.50438,-4.03632 -0.54357,-7.81125 -0.54357,-52.35 l 0,-48 0.66065,-1.23495 c 1.06481,-1.99038 2.10456,-3.02925 3.92811,-3.92472 l 1.71123,-0.84033 22.05,0 22.05,0 1.53701,0.81081 c 1.79753,0.94821 3.72029,3.01248 4.3231,4.64124 0.35716,0.96504 0.45099,8.6766 0.58886,48.39795 l 0.164,47.25 0.66427,3.3 c 1.04821,5.20731 2.06848,8.69103 3.80481,12.99159 7.27745,18.0249 22.594,31.3827 41.7193,36.384 7.63152,1.99566 4.69762,1.88538 54.89865,2.06304 l 45.6,0.16137 1.65,0.93069 c 0.9075,0.51186 2.08758,1.49958 2.62242,2.19492 1.93132,2.51094 1.90566,2.14272 1.81213,26.00895 l -0.0845,21.56544 -0.66066,1.23495 c -1.06483,1.99038 -2.10456,3.02925 -3.92811,3.92472 l -1.71123,0.84033 -43.8,0.0335 c -24.09,0.0183 -45.4875,-0.0745 -47.55,-0.20637 z m 345.3615,-0.2379 c -2.11029,-0.73881 -3.54816,-1.95138 -4.67984,-3.94665 l -0.93166,-1.64253 0,-22.35 0,-22.35 0.813,-1.54137 c 0.44715,-0.84774 1.38627,-2.03202 2.08689,-2.63175 2.45517,-2.1015 -0.72333,-1.97688 50.41638,-1.97688 30.3207,0 47.15689,-0.10854 49.07055,-0.31635 15.31491,-1.66311 28.28163,-7.93647 38.7846,-18.76416 8.77539,-9.04674 13.96069,-19.3404 16.53209,-32.81949 0.6553,-3.43488 0.6589,-3.65718 0.8273,-50.7 l 0.1692,-47.25 0.6607,-1.23495 c 1.0648,-1.99038 2.1045,-3.02925 3.9281,-3.92472 l 1.7112,-0.84033 22.05,0 22.05,0 1.5143,0.79926 c 1.879,0.99183 3.2359,2.35596 4.1123,4.13433 l 0.6734,1.36641 0.092,43.05 c 0.093,43.46118 -0.045,51.60477 -0.9988,58.85652 -1.882,14.30721 -5.8715,27.06834 -12.4098,39.6948 -11.7289,22.65051 -30.0404,40.72569 -52.8339,52.15206 -13.1837,6.609 -25.27703,10.19457 -40.8014,12.09735 -3.58017,0.43881 -9.67161,0.50772 -52.64859,0.59541 -46.69218,0.0953 -48.66237,0.0773 -50.1885,-0.45696 z M 1150.62,753.17123 l -19.1965,-19.19829 44.5758,-44.62671 c 31.4239,-31.45983 45.3482,-45.60036 47.1936,-47.92671 20.7202,-26.11959 26.7699,-59.68617 16.3558,-90.75 -3.5971,-10.72956 -9.0319,-20.65623 -16.4249,-30 -1.3931,-1.76073 -18.8324,-19.44774 -45.6284,-46.27656 l -43.3734,-43.42659 19.2731,-19.27308 19.2731,-19.27308 42.9161,42.89964 c 23.6038,23.59482 44.2555,44.45217 45.8927,46.34967 20.4606,23.71386 32.3623,50.99016 36.1943,82.95 0.7788,6.49578 0.7791,26.50074 0,33 -2.2722,18.96438 -7.064,35.21334 -15.1727,51.45 -5.2777,10.5681 -11.4628,19.99689 -19.4824,29.7 -1.7495,2.11677 -20.2483,20.86884 -47.8696,48.525 -24.7601,24.79125 -45.0885,45.075 -45.1743,45.075 -0.086,0 -8.7946,-8.63922 -19.3527,-19.19829 z M 252.84208,725.64626 c -42.9491,-43.00356 -46.13129,-46.30935 -51.68285,-53.6904 -34.3614,-45.6849 -39.77209,-108.04719 -13.82869,-159.38634 5.55186,-10.98654 11.84206,-20.42505 20.22095,-30.34176 3.20426,-3.79236 85.98668,-86.95824 86.55729,-86.95824 0.16927,0 8.9129,8.60433 19.43028,19.12074 l 19.1225,19.12077 -41.49664,41.55423 c -43.95093,44.01195 -44.55362,44.64963 -50.06946,52.97523 -16.2858,24.58176 -20.41845,54.42318 -11.42229,82.47903 2.7648,8.62239 7.50555,18.17604 12.65372,25.5 4.46064,6.34584 6.95523,8.94201 49.72678,51.75165 l 43.31308,43.35165 -19.27685,19.27509 -19.27684,19.27512 -43.97098,-44.02677 z m 153.16478,-266.2824 c -1.9929,-0.9333 -3.91846,-3.13887 -4.50656,-5.16183 -0.40213,-1.3833 -0.44272,-7.2138 -0.34167,-49.07616 0.12089,-50.08116 0.0849,-48.76605 1.57992,-57.78837 5.84401,-35.269 27.43635,-66.21576 58.74969,-84.20172 14.31752,-8.22379 30.57146,-13.42316 47.58005,-15.22008 2.93646,-0.31023 13.74018,-0.39618 49.8,-0.39618 l 46.05,0 1.5,0.79703 c 1.77531,0.94331 2.82582,2.01073 3.792,3.85297 l 0.708,1.35 0,22.2 c 0,21.99543 -0.006,22.21269 -0.63681,23.57682 -0.81062,1.7526 -2.32545,3.26741 -4.19471,4.19471 l -1.46848,0.72847 -45.45,0.16186 c -50.07855,0.17835 -46.81629,0.054 -54.94662,2.09432 -21.6771,5.43989 -38.83001,22.68876 -44.32622,44.57418 -2.0467,8.1498 -1.93025,5.03391 -2.11225,56.51964 -0.14804,41.87982 -0.21394,46.75737 -0.64444,47.7 -0.70905,1.55253 -1.95683,2.90778 -3.52709,3.83088 l -1.39337,0.81912 -22.35001,0.0761 -22.35,0.0761 -1.51143,-0.70782 z m 610.50514,-0.003 c -1.7755,-0.82683 -3.2104,-2.18253 -4.1303,-3.90237 l -0.6634,-1.24035 -0.1592,-47.1 c -0.1585,-46.89828 -0.162,-47.11542 -0.8194,-50.7 -2.7888,-15.20856 -9.65,-27.52857 -20.56116,-36.91983 -9.5425,-8.21324 -21.55606,-13.41938 -34.17342,-14.80926 -1.94182,-0.21253 -18.35361,-0.31953 -49.22056,-0.31953 -51.09782,0 -48.05259,0.1132 -50.64735,-1.88269 -0.69165,-0.53202 -1.67637,-1.70981 -2.18823,-2.61731 l -0.93069,-1.65 0,-22.35 0,-22.35 0.813,-1.54135 c 0.44715,-0.84775 1.38852,-2.03398 2.09196,-2.63608 2.48871,-2.13027 -1.00989,-2.00577 53.23491,-1.89432 53.44569,0.10981 51.18009,0.0394 61.31013,1.90568 19.497,3.59199 37.38201,11.83124 53.40001,24.60029 5.1775,4.1274 13.9764,12.9221 18.0669,18.05835 13.0873,16.43327 21.4805,35.03533 24.8149,54.99763 1.6864,10.0956 1.6682,9.44055 1.6682,60.1098 l 0,46.8 -0.8057,1.527 c -0.9226,1.74849 -2.5095,3.25413 -4.2747,4.05588 -1.1502,0.52239 -2.4755,0.55416 -23.2696,0.55761 l -22.05,0.004 -1.5063,-0.70143 z M 562.68927,165.24051 c -10.51653,-10.5175 -19.12098,-19.25931 -19.12098,-19.42624 0,-0.5278 87.56646,-87.800746 91.65001,-91.342786 36.62285,-31.766576 86.12484,-44.107696 133.61541,-33.311084 23.4156,5.323353 45.69116,16.492238 64.20135,32.190308 1.75077,1.484802 22.79211,22.289691 46.7585,46.233094 l 43.57527,43.533448 -19.27262,19.27437 -19.27267,19.27438 -43.50261,-43.4469 C 814.54731,111.47978 796.78,93.961222 795.11829,92.663292 780.0051,80.858728 764.0313,74.191933 745.16829,71.816248 c -4.6238,-0.582339 -17.16293,-0.496389 -21.9,0.150114 -18.71462,2.554128 -34.43432,9.26703 -49.17903,21.00129 -2.90685,2.31335 -13.91178,13.128858 -48.02499,47.198308 l -44.25402,44.19727 -19.12098,-19.12272 z"
     id="path4172"
     inkscape:connector-curvature="0"
     inkscape:export-xdpi="300"
     inkscape:export-ydpi="300" />
  <path
     style="fill:#000000"
     d=""
     id="path4170"
     inkscape:connector-curvature="0" />
</svg>
